<svg aria-hidden="true" style="position: absolute; width: 0; height: 0; overflow: hidden;" version="1.1" xmlns="http://www.w3.org/2000/svg" xmlns:xlink="http://www.w3.org/1999/xlink">
<defs>
<symbol id="icon-file-pdf-o" viewBox="0 0 24 28">
<title>file-pdf-o</title>
<path d="M22.937 5.938c0.578 0.578 1.062 1.734 1.062 2.562v18c0 0.828-0.672 1.5-1.5 1.5h-21c-0.828 0-1.5-0.672-1.5-1.5v-25c0-0.828 0.672-1.5 1.5-1.5h14c0.828 0 1.984 0.484 2.562 1.062zM16 2.125v5.875h5.875c-0.094-0.266-0.234-0.531-0.344-0.641l-4.891-4.891c-0.109-0.109-0.375-0.25-0.641-0.344zM22 26v-16h-6.5c-0.828 0-1.5-0.672-1.5-1.5v-6.5h-12v24h20zM13.969 16.734c0.391 0.313 0.828 0.594 1.312 0.875 0.656-0.078 1.266-0.109 1.828-0.109 1.047 0 2.375 0.125 2.766 0.766 0.109 0.156 0.203 0.438 0.031 0.812-0.016 0.016-0.031 0.047-0.047 0.063v0.016c-0.047 0.281-0.281 0.594-1.109 0.594-1 0-2.516-0.453-3.828-1.141-2.172 0.234-4.453 0.719-6.125 1.297-1.609 2.75-2.844 4.094-3.781 4.094-0.156 0-0.297-0.031-0.438-0.109l-0.375-0.187c-0.047-0.016-0.063-0.047-0.094-0.078-0.078-0.078-0.141-0.25-0.094-0.562 0.156-0.719 1-1.922 2.938-2.938 0.125-0.078 0.281-0.031 0.359 0.094 0.016 0.016 0.031 0.047 0.031 0.063 0.484-0.797 1.047-1.813 1.672-3.078 0.703-1.406 1.25-2.781 1.625-4.094-0.5-1.703-0.656-3.453-0.375-4.484 0.109-0.391 0.344-0.625 0.656-0.625h0.344c0.234 0 0.422 0.078 0.547 0.234 0.187 0.219 0.234 0.562 0.141 1.062-0.016 0.047-0.031 0.094-0.063 0.125 0.016 0.047 0.016 0.078 0.016 0.125v0.469c-0.016 0.984-0.031 1.922-0.219 3 0.547 1.641 1.359 2.969 2.281 3.719zM4.969 23.156c0.469-0.219 1.141-0.891 2.141-2.469-1.172 0.906-1.906 1.937-2.141 2.469zM11.188 8.781c-0.156 0.438-0.156 1.188-0.031 2.063 0.047-0.25 0.078-0.484 0.109-0.688 0.031-0.266 0.078-0.484 0.109-0.672 0.016-0.047 0.031-0.078 0.063-0.125-0.016-0.016-0.016-0.047-0.031-0.078-0.016-0.281-0.109-0.453-0.203-0.562 0 0.031-0.016 0.047-0.016 0.063zM9.25 19.109c1.375-0.547 2.906-0.984 4.438-1.266-0.156-0.125-0.313-0.234-0.453-0.359-0.766-0.672-1.453-1.609-1.984-2.75-0.297 0.953-0.734 1.969-1.297 3.078-0.234 0.438-0.469 0.875-0.703 1.297zM19.344 18.859c-0.078-0.078-0.484-0.375-2.188-0.375 0.766 0.281 1.469 0.438 1.937 0.438 0.141 0 0.219 0 0.281-0.016 0-0.016-0.016-0.031-0.031-0.047z"></path>
</symbol>
<symbol id="icon-home" viewBox="0 0 26 28">
<title>home</title>
<path d="M22 15.5v7.5c0 0.547-0.453 1-1 1h-6v-6h-4v6h-6c-0.547 0-1-0.453-1-1v-7.5c0-0.031 0.016-0.063 0.016-0.094l8.984-7.406 8.984 7.406c0.016 0.031 0.016 0.063 0.016 0.094zM25.484 14.422l-0.969 1.156c-0.078 0.094-0.203 0.156-0.328 0.172h-0.047c-0.125 0-0.234-0.031-0.328-0.109l-10.813-9.016-10.813 9.016c-0.109 0.078-0.234 0.125-0.375 0.109-0.125-0.016-0.25-0.078-0.328-0.172l-0.969-1.156c-0.172-0.203-0.141-0.531 0.063-0.703l11.234-9.359c0.656-0.547 1.719-0.547 2.375 0l3.813 3.187v-3.047c0-0.281 0.219-0.5 0.5-0.5h3c0.281 0 0.5 0.219 0.5 0.5v6.375l3.422 2.844c0.203 0.172 0.234 0.5 0.063 0.703z"></path>
</symbol>
<symbol id="icon-calendar-check-o" viewBox="0 0 26 28">
<title>calendar-check-o</title>
<path d="M20.359 15.062l-8 8c-0.203 0.187-0.516 0.187-0.719 0l-4.5-4.5c-0.187-0.203-0.187-0.516 0-0.703l0.719-0.719c0.187-0.187 0.5-0.187 0.703 0l3.437 3.437 6.937-6.937c0.203-0.187 0.516-0.187 0.703 0l0.719 0.719c0.187 0.187 0.187 0.5 0 0.703zM2 26h22v-16h-22v16zM8 7v-4.5c0-0.281-0.219-0.5-0.5-0.5h-1c-0.281 0-0.5 0.219-0.5 0.5v4.5c0 0.281 0.219 0.5 0.5 0.5h1c0.281 0 0.5-0.219 0.5-0.5zM20 7v-4.5c0-0.281-0.219-0.5-0.5-0.5h-1c-0.281 0-0.5 0.219-0.5 0.5v4.5c0 0.281 0.219 0.5 0.5 0.5h1c0.281 0 0.5-0.219 0.5-0.5zM26 6v20c0 1.094-0.906 2-2 2h-22c-1.094 0-2-0.906-2-2v-20c0-1.094 0.906-2 2-2h2v-1.5c0-1.375 1.125-2.5 2.5-2.5h1c1.375 0 2.5 1.125 2.5 2.5v1.5h6v-1.5c0-1.375 1.125-2.5 2.5-2.5h1c1.375 0 2.5 1.125 2.5 2.5v1.5h2c1.094 0 2 0.906 2 2z"></path>
</symbol>
<symbol id="icon-calendar" viewBox="0 0 32 32">
<title>calendar</title>
<path d="M12.048 16.961c-0.178 0.257-0.395 0.901-0.652 1.059-0.257 0.157-0.547 0.267-0.869 0.328-0.323 0.062-0.657 0.089-1.002 0.079v1.527h2.467v6.046h1.991v-9.996h-1.584c-0.056 0.381-0.173 0.7-0.351 0.957zM23 8h2c0.553 0 1-0.448 1-1v-6c0-0.552-0.447-1-1-1h-2c-0.553 0-1 0.448-1 1v6c0 0.552 0.447 1 1 1zM7 8h2c0.552 0 1-0.448 1-1v-6c0-0.552-0.448-1-1-1h-2c-0.552 0-1 0.448-1 1v6c0 0.552 0.448 1 1 1zM30 4h-2v5c0 0.552-0.447 1-1 1h-6c-0.553 0-1-0.448-1-1v-5h-8v5c0 0.552-0.448 1-1 1h-6c-0.552 0-1-0.448-1-1v-5h-2c-1.104 0-2 0.896-2 2v24c0 1.104 0.896 2 2 2h28c1.104 0 2-0.896 2-2v-24c0-1.104-0.896-2-2-2zM30 29c0 0.553-0.447 1-1 1h-26c-0.552 0-1-0.447-1-1v-16c0-0.552 0.448-1 1-1h26c0.553 0 1 0.448 1 1v16zM15.985 17.982h4.968c-0.936 1.152-1.689 2.325-2.265 3.705-0.575 1.381-0.638 2.818-0.749 4.312h2.131c0.009-0.666-0.195-1.385-0.051-2.156 0.146-0.771 0.352-1.532 0.617-2.285 0.267-0.752 0.598-1.461 0.996-2.127 0.396-0.667 0.853-1.229 1.367-1.686v-1.742h-7.015v1.979z"></path>
</symbol>
<symbol id="icon-file-text2" viewBox="0 0 32 32">
<title>file-text2</title>
<path d="M28.681 7.159c-0.694-0.947-1.662-2.053-2.724-3.116s-2.169-2.030-3.116-2.724c-1.612-1.182-2.393-1.319-2.841-1.319h-15.5c-1.378 0-2.5 1.121-2.5 2.5v27c0 1.378 1.122 2.5 2.5 2.5h23c1.378 0 2.5-1.122 2.5-2.5v-19.5c0-0.448-0.137-1.23-1.319-2.841zM24.543 5.457c0.959 0.959 1.712 1.825 2.268 2.543h-4.811v-4.811c0.718 0.556 1.584 1.309 2.543 2.268zM28 29.5c0 0.271-0.229 0.5-0.5 0.5h-23c-0.271 0-0.5-0.229-0.5-0.5v-27c0-0.271 0.229-0.5 0.5-0.5 0 0 15.499-0 15.5 0v7c0 0.552 0.448 1 1 1h7v19.5z"></path>
<path d="M23 26h-14c-0.552 0-1-0.448-1-1s0.448-1 1-1h14c0.552 0 1 0.448 1 1s-0.448 1-1 1z"></path>
<path d="M23 22h-14c-0.552 0-1-0.448-1-1s0.448-1 1-1h14c0.552 0 1 0.448 1 1s-0.448 1-1 1z"></path>
<path d="M23 18h-14c-0.552 0-1-0.448-1-1s0.448-1 1-1h14c0.552 0 1 0.448 1 1s-0.448 1-1 1z"></path>
</symbol>
<symbol id="icon-bubbles3" viewBox="0 0 36 32">
<title>bubbles3</title>
<path d="M34 28.161c0 1.422 0.813 2.653 2 3.256v0.498c-0.332 0.045-0.671 0.070-1.016 0.070-2.125 0-4.042-0.892-5.398-2.321-0.819 0.218-1.688 0.336-2.587 0.336-4.971 0-9-3.582-9-8s4.029-8 9-8c4.971 0 9 3.582 9 8 0 1.73-0.618 3.331-1.667 4.64-0.213 0.463-0.333 0.979-0.333 1.522zM7.209 6.912c-2.069 1.681-3.209 3.843-3.209 6.088 0 1.259 0.35 2.481 1.039 3.63 0.711 1.185 1.781 2.268 3.093 3.133 0.949 0.625 1.587 1.623 1.755 2.747 0.056 0.375 0.091 0.753 0.105 1.129 0.233-0.194 0.461-0.401 0.684-0.624 0.755-0.755 1.774-1.172 2.828-1.172 0.168 0 0.336 0.011 0.505 0.032 0.655 0.083 1.323 0.125 1.987 0.126v4c-0.848-0-1.68-0.054-2.492-0.158-3.437 3.437-7.539 4.053-11.505 4.144v-0.841c2.142-1.049 4-2.961 4-5.145 0-0.305-0.024-0.604-0.068-0.897-3.619-2.383-5.932-6.024-5.932-10.103 0-7.18 7.163-13 16-13 8.702 0 15.781 5.644 15.995 12.672-1.284-0.572-2.683-0.919-4.133-1.018-0.36-1.752-1.419-3.401-3.070-4.742-1.104-0.897-2.404-1.606-3.863-2.108-1.553-0.534-3.211-0.804-4.928-0.804s-3.375 0.271-4.928 0.804c-1.46 0.502-2.76 1.211-3.863 2.108z"></path>
</symbol>
<symbol id="icon-users" viewBox="0 0 36 32">
<title>users</title>
<path d="M24 24.082v-1.649c2.203-1.241 4-4.337 4-7.432 0-4.971 0-9-6-9s-6 4.029-6 9c0 3.096 1.797 6.191 4 7.432v1.649c-6.784 0.555-12 3.888-12 7.918h28c0-4.030-5.216-7.364-12-7.918z"></path>
<path d="M10.225 24.854c1.728-1.13 3.877-1.989 6.243-2.513-0.47-0.556-0.897-1.176-1.265-1.844-0.95-1.726-1.453-3.627-1.453-5.497 0-2.689 0-5.228 0.956-7.305 0.928-2.016 2.598-3.265 4.976-3.734-0.529-2.39-1.936-3.961-5.682-3.961-6 0-6 4.029-6 9 0 3.096 1.797 6.191 4 7.432v1.649c-6.784 0.555-12 3.888-12 7.918h8.719c0.454-0.403 0.956-0.787 1.506-1.146z"></path>
</symbol>
</defs>
</svg>
